<?xml version="1.0" encoding="UTF-8" standalone="no"?>
<!DOCTYPE svg PUBLIC "-//W3C//DTD SVG 1.1//EN" "http://www.w3.org/Graphics/SVG/1.1/DTD/svg11.dtd">
<svg width="100%" height="100%" viewBox="0 0 649 512" version="1.1" xmlns="http://www.w3.org/2000/svg" xmlns:xlink="http://www.w3.org/1999/xlink" xml:space="preserve" xmlns:serif="http://www.serif.com/" style="fill-rule:evenodd;clip-rule:evenodd;stroke-linejoin:round;stroke-miterlimit:2;">
    <g transform="matrix(1.35575,0,0,2.67762,-45.8047,-230.021)">
        <path d="M512,124.148L512,238.877C512,259.983 478.156,277.119 436.47,277.119L109.316,277.119C67.63,277.119 33.786,259.983 33.786,238.877L33.786,124.148C33.786,103.041 67.63,85.905 109.316,85.905L436.47,85.905C478.156,85.905 512,103.041 512,124.148ZM102.276,112.704C318.143,193.689 234.341,193.838 453.412,112.661C446.436,111.1 440.094,111.095 440.094,111.095L116.986,111.077C116.986,111.077 107.941,110.763 102.276,112.704ZM90.236,137.821C90.135,185.576 90.521,217.488 90.541,238.624C89.041,254.363 117.111,253.347 117.111,253.347L437.168,253.347C437.168,253.347 466.045,254.787 464.575,240.176C464.311,218.099 464.407,203.66 464.575,137.821C259.112,216.724 298.311,216.763 90.236,137.821Z" style="fill:rgb(243,247,248);"/>
    </g>
</svg>
